<svg id="Layer_1" data-name="Layer 1" xmlns="http://www.w3.org/2000/svg" viewBox="0 0 113.84 122.88"><defs><style>.cls-1{fill-rule:evenodd;}</style></defs><title>folders-hierachy</title><path class="cls-1" d="M1.78,4,.18,7.55H44.23L42.61,4H23a1.17,1.17,0,0,1-1.18-1.17V0H5.05V2.81A1.17,1.17,0,0,1,3.87,4Zm67.7,95.21,2.88,22.22a1.49,1.49,0,0,0,1.36,1.47h35c.81,0,1.26-.78,1.36-1.5l3.73-22.19Zm1.78-5.77L69.66,97h44l-1.62-3.57H92.44a1.17,1.17,0,0,1-1.18-1.17V89.44H74.52v2.81a1.17,1.17,0,0,1-1.17,1.17ZM66.87,55.49l2.89,22.22a1.48,1.48,0,0,0,1.35,1.47h35c.81,0,1.26-.78,1.36-1.5l3.73-22.19Zm1.78-5.77-1.6,3.57H111.1l-1.62-3.57H89.83a1.17,1.17,0,0,1-1.17-1.18v-2.8H71.92v2.81a1.18,1.18,0,0,1-1.18,1.17ZM25.18,62.65H58.7v6H25.18v42H58.37v6H19.18V37.71h6V62.65ZM0,9.75,2.88,32a1.5,1.5,0,0,0,1.36,1.47h35c.81,0,1.26-.78,1.36-1.5L44.36,9.75Z"/></svg>