<svg id="Layer_1" data-name="Layer 1" xmlns="http://www.w3.org/2000/svg" viewBox="0 0 110.9 122.88"><title>folder-tree</title><path d="M1.18,8.85l1.29-.08V4.16a1.19,1.19,0,0,1,.35-.83A1.15,1.15,0,0,1,3.65,3H4.92V1.18A1.15,1.15,0,0,1,5.27.35,1.13,1.13,0,0,1,6.1,0H20.39a1.15,1.15,0,0,1,.83.35,1.15,1.15,0,0,1,.35.83V3h19a1.18,1.18,0,0,1,1.18,1.18V8.77L43,8.85A1.16,1.16,0,0,1,44.21,10c-.41,6.34-2.15,14.87-3.1,21.39a4,4,0,0,1-.34,1.14,3.55,3.55,0,0,1-.67.95,3.18,3.18,0,0,1-1,.65,2.87,2.87,0,0,1-1.14.23H5.51a2.91,2.91,0,0,1-1.15-.23,3,3,0,0,1-1-.66,3.24,3.24,0,0,1-.67-1,3.39,3.39,0,0,1-.32-1.15L0,10.15a1.16,1.16,0,0,1,.25-.87,1.22,1.22,0,0,1,.62-.39v0ZM67.87,97.34l1.3-.08V92.65a1.18,1.18,0,0,1,.34-.83,1.15,1.15,0,0,1,.84-.35h1.26v-1.8a1.2,1.2,0,0,1,1.18-1.18H87.08a1.18,1.18,0,0,1,1.18,1.18v1.8h19a1.15,1.15,0,0,1,.84.35,1.18,1.18,0,0,1,.34.83v4.61l1.31.08a1.19,1.19,0,0,1,.84.34,1.2,1.2,0,0,1,.34.84c-.41,6.34-2.15,14.87-3.1,21.39a4,4,0,0,1-.34,1.14,3.58,3.58,0,0,1-.66,1,3.11,3.11,0,0,1-1,.65,2.87,2.87,0,0,1-1.14.23H72.21a3,3,0,0,1-2.14-.89,3.43,3.43,0,0,1-.67-1,3.91,3.91,0,0,1-.32-1.15L66.7,98.64a1.21,1.21,0,0,1,.26-.87,1.16,1.16,0,0,1,.61-.39v0Zm2.48,2.36H69.18l2.24,19.93a1.68,1.68,0,0,0,.11.4,1,1,0,0,0,.2.29.54.54,0,0,0,.22.15l.26,0h32.47l.24,0a.86.86,0,0,0,.22-.15,1.41,1.41,0,0,0,.21-.31,1.52,1.52,0,0,0,.12-.43l2.9-19.89Zm1.17-5.87v3.43h34.54V93.83h-19a1.15,1.15,0,0,1-.83-.35,1.19,1.19,0,0,1-.35-.83v-1.8H74v1.8a1.13,1.13,0,0,1-.35.83,1.15,1.15,0,0,1-.83.35ZM67.87,53.09l1.3-.07V48.41a1.16,1.16,0,0,1,1.18-1.18h1.26v-1.8a1.15,1.15,0,0,1,.35-.84,1.18,1.18,0,0,1,.83-.34H87.08a1.2,1.2,0,0,1,.84.34,1.19,1.19,0,0,1,.34.84v1.8h19a1.16,1.16,0,0,1,1.18,1.18V53l1.31.07a1.19,1.19,0,0,1,.84.35,1.18,1.18,0,0,1,.34.83c-.41,6.34-2.15,14.87-3.1,21.4a4,4,0,0,1-.34,1.13,3.43,3.43,0,0,1-.66,1,3,3,0,0,1-1,.66,3,3,0,0,1-1.14.22H72.21a2.89,2.89,0,0,1-2.14-.89,3.25,3.25,0,0,1-.67-1,4,4,0,0,1-.32-1.15L66.7,54.4a1.19,1.19,0,0,1,.26-.87,1.17,1.17,0,0,1,.61-.4v0Zm2.48,2.36H69.18l2.24,19.93a1.68,1.68,0,0,0,.11.4,1.21,1.21,0,0,0,.2.3.66.66,0,0,0,.22.15l.26,0h32.47l.24,0a.83.83,0,0,0,.22-.14,1.48,1.48,0,0,0,.21-.32,1.45,1.45,0,0,0,.12-.42l2.9-19.9Zm1.17-5.86V53h34.54V49.59h-19a1.2,1.2,0,0,1-1.18-1.18V46.6H74v1.81a1.15,1.15,0,0,1-.35.83,1.19,1.19,0,0,1-.83.35ZM24.7,63H58.21v5.2H24.7v42.26H57.89v5.2H19.5V38h5.2V63Zm-21-51.77H2.48L4.73,31.14a1,1,0,0,0,.11.39.69.69,0,0,0,.2.3.54.54,0,0,0,.22.15l.25.05H38l.24,0a.8.8,0,0,0,.21-.15,1,1,0,0,0,.21-.31,1.53,1.53,0,0,0,.13-.43l2.9-19.89ZM4.83,5.34V8.77H39.36V5.34h-19A1.13,1.13,0,0,1,19.56,5a1.15,1.15,0,0,1-.35-.83V2.36H7.28v1.8A1.13,1.13,0,0,1,6.93,5a1.15,1.15,0,0,1-.83.35Z"/></svg>